<svg width="28" height="28" viewBox="0 0 28 28" fill="none" xmlns="http://www.w3.org/2000/svg">
<path fill-rule="evenodd" clip-rule="evenodd" d="M26.0892 22.4092C25.5429 18.2433 24.284 8.64129 23.7949 4.90917C23.6235 3.60269 22.5099 2.62549 21.192 2.62549C17.9207 2.62549 10.2972 2.62549 7.02594 2.62549C5.70826 2.62549 4.5947 3.60269 4.42334 4.90917C3.9339 8.64129 2.67502 18.2433 2.12874 22.4092C2.03046 23.1584 2.26006 23.9139 2.75846 24.4817C3.25686 25.0498 3.9759 25.3755 4.73162 25.3755H23.4866C24.2423 25.3755 24.9613 25.0498 25.4597 24.4817C25.9581 23.9139 26.1875 23.1584 26.0892 22.4092ZM8.85602 7.00161C8.85602 9.89905 11.2083 12.2516 14.106 12.2516C17.0035 12.2516 19.356 9.89905 19.356 7.00161C19.356 6.51861 18.9637 6.12661 18.481 6.12661C17.998 6.12661 17.606 6.51861 17.606 7.00161C17.606 8.93333 16.0377 10.5016 14.106 10.5016C12.1743 10.5016 10.606 8.93333 10.606 7.00161C10.606 6.51861 10.2137 6.12661 9.73102 6.12661C9.24802 6.12661 8.85602 6.51861 8.85602 7.00161Z" fill="white"/>
</svg>