<svg xmlns="http://www.w3.org/2000/svg" width="16" height="16" viewBox="0 0 16 16">
  <path id="Icon_awesome-check-square" data-name="Icon awesome-check-square" d="M14.286,18.25H1.714A1.714,1.714,0,0,1,0,16.536V3.964A1.714,1.714,0,0,1,1.714,2.25H14.286A1.714,1.714,0,0,1,16,3.964V16.536A1.714,1.714,0,0,1,14.286,18.25Zm-7.31-3.5,6.571-6.571a.571.571,0,0,0,0-.808l-.808-.808a.571.571,0,0,0-.808,0L6.571,11.919l-2.5-2.5a.571.571,0,0,0-.808,0l-.808.808a.571.571,0,0,0,0,.808l3.714,3.714a.571.571,0,0,0,.808,0Z" transform="translate(0 -2.25)" fill="#f77313"/>
</svg>