<svg version="1.1" xmlns="http://www.w3.org/2000/svg" xmlns:xlink="http://www.w3.org/1999/xlink" x="0px" y="0px" viewBox="0 0 512 512" style="enable-background:new 0 0 512 512;" xml:space="preserve" fill="#E2E2E2">
    <g>
        <g>
            <path d="M394.667,405.333c-29.419,0-53.333,23.936-53.333,53.333S365.248,512,394.667,512S448,488.064,448,458.667S424.085,405.333,394.667,405.333z M394.667,490.667c-17.643,0-32-14.357-32-32s14.357-32,32-32s32,14.357,32,32S412.309,490.667,394.667,490.667z"/>
        </g>
    </g>
    <g>
        <g>
            <path d="M181.333,405.333c-29.419,0-53.333,23.936-53.333,53.333S151.915,512,181.333,512c29.419,0,53.333-23.936,53.333-53.333S210.752,405.333,181.333,405.333z M181.333,490.667c-17.643,0-32-14.357-32-32s14.357-32,32-32c17.643,0,32,14.357,32,32S198.976,490.667,181.333,490.667z"/>
        </g>
    </g>
    <g>
        <g>
            <path d="M437.333,362.667H191.125c-25.344,0-47.339-18.027-52.288-42.88L85.12,51.243c-1.003-4.992-5.376-8.576-10.453-8.576h-64C4.779,42.667,0,47.445,0,53.333S4.779,64,10.667,64H65.92l51.989,259.989C124.885,358.763,155.648,384,191.125,384h246.208c5.888,0,10.667-4.779,10.667-10.667C448,367.445,443.221,362.667,437.333,362.667z"/>
        </g>
    </g>
    <g>
        <g>
            <path d="M464.64,240.043c-5.547-0.725-11.179,3.392-11.904,9.259c-1.984,15.979-15.637,28.032-31.744,28.032H128c-5.888,0-10.667,4.779-10.667,10.667s4.779,10.667,10.667,10.667h292.992c26.837,0,49.6-20.075,52.928-46.72C474.645,246.101,470.485,240.768,464.64,240.043z"/>
        </g>
    </g>
    <g>
        <g>
            <path d="M245.333,106.667H96c-5.888,0-10.667,4.779-10.667,10.667S90.112,128,96,128h149.333c5.888,0,10.667-4.779,10.667-10.667S251.221,106.667,245.333,106.667z"/>
        </g>
    </g>
    <g>
        <g>
            <path d="M394.667,0c-64.683,0-117.333,52.629-117.333,117.333s52.651,117.333,117.333,117.333S512,182.037,512,117.333S459.349,0,394.667,0z M394.667,213.333c-52.928,0-96-43.072-96-96c0-52.928,43.072-96,96-96s96,43.072,96,96C490.667,170.261,447.595,213.333,394.667,213.333z"/>
        </g>
    </g>
    <g>
        <g>
            <path d="M444.864,152.469l-85.333-85.333c-4.16-4.16-10.923-4.16-15.083,0c-4.16,4.16-4.16,10.923,0,15.083l85.333,85.333c2.091,2.069,4.821,3.115,7.552,3.115c2.731,0,5.461-1.045,7.531-3.115C449.024,163.392,449.024,156.629,444.864,152.469z"/>
        </g>
    </g>
    <g>
        <g>
            <path d="M444.864,67.136c-4.16-4.16-10.923-4.16-15.083,0l-85.333,85.333c-4.16,4.16-4.16,10.923,0,15.083c2.091,2.069,4.821,3.115,7.552,3.115c2.731,0,5.461-1.045,7.531-3.115l85.333-85.333C449.024,78.059,449.024,71.296,444.864,67.136z"/>
        </g>
    </g>
</svg>
