<svg xmlns="http://www.w3.org/2000/svg" width="29" height="28" viewBox="0 0 29 28" fill="none"><path d="M12.6812 1.11008C12.5522 1.03804 12.4047 1 12.2544 1C12.1041 1 11.9566 1.03804 11.8275 1.11008C11.7211 1.18889 11.6493 1.30145 11.6257 1.42643C11.6021 1.55141 11.6283 1.68015 11.6995 1.78825C14.3246 6.03681 14.8795 11.8212 11.294 15.0126C9.91447 13.9292 8.81926 12.5644 8.09262 11.0234C6.76668 11.7116 5.6678 12.7262 4.9153 13.9569C4.1628 15.1877 3.78542 16.5875 3.82413 18.0046C3.87826 19.2538 4.19919 20.4802 4.76805 21.6118C5.3369 22.7433 6.14219 23.7571 7.13652 24.5934C8.13084 25.4298 9.29412 26.0718 10.5579 26.4818C11.8217 26.8917 13.1604 27.0612 14.4954 26.9804C21.3676 26.9804 24.9318 22.9911 25.1666 18.0046C25.444 12.0207 20.8981 4.66051 12.6812 1.11008Z" fill="white" fill-opacity="0.5" stroke="black" stroke-width="0.96" stroke-linecap="round" stroke-linejoin="round"></path></svg>