<svg width="49" height="48" viewBox="0 0 49 48" fill="none" xmlns="http://www.w3.org/2000/svg">
<rect x="0.5" width="48" height="48" rx="10" fill="#00E131"/>
<rect x="0.5" width="48" height="48" rx="10" fill="black" fill-opacity="0.4"/>
<path d="M10.5 35.1429C10.5 33.619 10.5 32.0952 10.5 30.5714C10.5 28.9841 10.5 27.4286 10.5 25.9048C10.5 21.0159 11.1984 17.1746 12.5952 14.381C13.9921 11.5873 16.4365 10.127 19.9286 10L21.7381 13.7143C19.7698 13.9048 18.4048 14.8571 17.6429 16.5714C16.9444 18.2222 16.5952 20.8571 16.5952 24.4762H21.6429V35.1429H10.5ZM27.2619 35.1429C27.2619 33.619 27.2619 32.0952 27.2619 30.5714C27.2619 28.9841 27.2619 27.4286 27.2619 25.9048C27.2619 21.0159 27.9603 17.1746 29.3571 14.381C30.754 11.5873 33.1984 10.127 36.6905 10L38.5 13.7143C36.5317 13.9048 35.1667 14.8571 34.4048 16.5714C33.7064 18.2222 33.3571 20.8571 33.3571 24.4762H38.4048V35.1429H27.2619Z" fill="white"/>
</svg>