<svg xmlns="http://www.w3.org/2000/svg" width="25" height="25" viewBox="0 0 25 25" fill="none">
<g clip-path="url(#clip0_214_222)">
<path d="M0.914215 12.2251C0.914215 11.9599 1.01957 11.7056 1.20711 11.518C1.39464 11.3305 1.649 11.2251 1.91421 11.2251H21.2933L15.9993 5.93314C15.9063 5.84016 15.8326 5.72979 15.7823 5.60831C15.732 5.48683 15.7061 5.35663 15.7061 5.22514C15.7061 5.09365 15.732 4.96345 15.7823 4.84197C15.8326 4.72049 15.9063 4.61012 15.9993 4.51714C16.0923 4.42416 16.2027 4.35041 16.3242 4.30009C16.4456 4.24978 16.5758 4.22388 16.7073 4.22388C16.8388 4.22388 16.969 4.24978 17.0905 4.30009C17.212 4.35041 17.3223 4.42416 17.4153 4.51714L24.4153 11.5171C24.5084 11.61 24.5823 11.7204 24.6327 11.8419C24.6832 11.9634 24.7091 12.0936 24.7091 12.2251C24.7091 12.3567 24.6832 12.4869 24.6327 12.6084C24.5823 12.7299 24.5084 12.8402 24.4153 12.9331L17.4153 19.9331C17.2275 20.1209 16.9729 20.2264 16.7073 20.2264C16.4418 20.2264 16.1871 20.1209 15.9993 19.9331C15.8115 19.7454 15.7061 19.4907 15.7061 19.2251C15.7061 18.9596 15.8115 18.7049 15.9993 18.5171L21.2933 13.2251H1.91421C1.649 13.2251 1.39464 13.1198 1.20711 12.9322C1.01957 12.7447 0.914215 12.4904 0.914215 12.2251Z" fill="white"/>
</g>
<defs>
<clipPath id="clip0_214_222">
<rect width="24" height="24" fill="white" transform="translate(0.5 0.5)"/>
</clipPath>
</defs>
</svg>