<svg width="18" height="18" viewBox="0 0 18 18" fill="none" xmlns="http://www.w3.org/2000/svg">
<g clip-path="url(#clip0_228_121)">
<path d="M2.26205 4.76891L2.26212 4.76898L8.9984 11.5107L15.734 4.76963C15.7341 4.76954 15.7342 4.76945 15.7343 4.76936C15.8098 4.69333 15.8995 4.63298 15.9984 4.59178C16.0974 4.55053 16.2036 4.5293 16.3109 4.5293C16.4182 4.5293 16.5244 4.55053 16.6234 4.59178C16.7221 4.6329 16.8117 4.69309 16.887 4.76891C16.9629 4.84429 17.0231 4.93389 17.0642 5.03259C17.1054 5.1316 17.1267 5.2378 17.1267 5.34506C17.1267 5.45232 17.1054 5.55851 17.0642 5.65753C17.023 5.75637 16.9627 5.8461 16.8867 5.92155C16.8866 5.92168 16.8864 5.92181 16.8863 5.92193L9.57527 13.233C9.5751 13.2332 9.57492 13.2333 9.57475 13.2335C9.49933 13.3094 9.40965 13.3697 9.31087 13.4108C9.21185 13.4521 9.10566 13.4733 8.9984 13.4733C8.89114 13.4733 8.78494 13.4521 8.68593 13.4108C8.58714 13.3697 8.49746 13.3094 8.42204 13.2335C8.42187 13.2333 8.42169 13.2332 8.42152 13.233L1.10974 5.92121C0.956939 5.76841 0.871094 5.56116 0.871094 5.34506C0.871094 5.23806 0.892169 5.1321 0.933117 5.03325C0.974065 4.93439 1.03408 4.84457 1.10974 4.76891C1.1854 4.69325 1.27523 4.63323 1.37408 4.59228C1.47294 4.55133 1.57889 4.53026 1.6859 4.53026C1.90199 4.53026 2.10924 4.6161 2.26205 4.76891Z" fill="white" stroke="white" stroke-width="0.5"/>
</g>
<defs>
<clipPath id="clip0_228_121">
<rect width="18" height="18" fill="white" transform="matrix(1.19249e-08 1 1 -1.19249e-08 0 0)"/>
</clipPath>
</defs>
</svg>