<svg width="28" height="28" viewBox="0 0 28 28" fill="none" xmlns="http://www.w3.org/2000/svg">
<path fill-rule="evenodd" clip-rule="evenodd" d="M17.5438 5.01221C18.027 5.01221 18.4188 5.40396 18.4188 5.88721V9.48527C18.4188 9.96851 18.027 10.3603 17.5438 10.3603C17.0605 10.3603 16.6688 9.96851 16.6688 9.48527V8.51563H2.46484C1.9816 8.51563 1.58984 8.12388 1.58984 7.64063C1.58984 7.15738 1.9816 6.76563 2.46484 6.76563H16.6688V5.88721C16.6688 5.40396 17.0605 5.01221 17.5438 5.01221ZM26.5419 7.63214C26.5467 8.11537 26.1587 8.5109 25.6756 8.51559L20.9688 8.56123C20.4856 8.56592 20.09 8.17798 20.0854 7.69476C20.0807 7.21153 20.4686 6.816 20.9518 6.81131L25.6585 6.76567C26.1418 6.76098 26.5373 7.14892 26.5419 7.63214ZM10.5496 10.7892C11.0329 10.7892 11.4246 11.181 11.4246 11.6642V13.4166V13.4186V15.2623C11.4246 15.7455 11.0329 16.1373 10.5496 16.1373C10.0664 16.1373 9.67462 15.7455 9.67462 15.2623V14.2926H2.46484C1.9816 14.2926 1.58984 13.9009 1.58984 13.4176C1.58984 12.9344 1.9816 12.5426 2.46484 12.5426H9.67462V11.6642C9.67462 11.181 10.0664 10.7892 10.5496 10.7892ZM13.1254 13.4176C13.1254 12.9344 13.5171 12.5426 14.0004 12.5426H25.667C26.1503 12.5426 26.542 12.9344 26.542 13.4176C26.542 13.9009 26.1503 14.2926 25.667 14.2926H14.0004C13.5171 14.2926 13.1254 13.9009 13.1254 13.4176ZM15.1856 17.747C15.6688 17.747 16.0606 18.1388 16.0606 18.622V22.22C16.0606 22.7033 15.6688 23.095 15.1856 23.095C14.7024 23.095 14.3106 22.7033 14.3106 22.22V21.2504H2.8855C2.40224 21.2504 2.0105 20.8586 2.0105 20.3754C2.0105 19.8922 2.40224 19.5004 2.8855 19.5004H14.3106V18.622C14.3106 18.1388 14.7024 17.747 15.1856 17.747ZM26.9627 20.37C26.9657 20.8533 26.5763 21.2474 26.0931 21.2504L18.6558 21.2963C18.1726 21.2993 17.7785 20.9099 17.7755 20.4266C17.7726 19.9434 18.1619 19.5493 18.6451 19.5463L26.0823 19.5004C26.5656 19.4975 26.9597 19.8868 26.9627 20.37Z" fill="white"/>
</svg>