<svg xmlns="http://www.w3.org/2000/svg" width="88" height="16" viewBox="0 0 88 16" fill="none">
  <path d="M8 0L9.88854 6.11146H16L11.0557 9.88854L12.9443 16L8 12.2229L3.05573 16L4.94427 9.88854L0 6.11146H6.11146L8 0Z" fill="#F87212"/>
  <path d="M26 0L27.8885 6.11146H34L29.0557 9.88854L30.9443 16L26 12.2229L21.0557 16L22.9443 9.88854L18 6.11146H24.1115L26 0Z" fill="#F87212"/>
  <path d="M44 0L45.8885 6.11146H52L47.0557 9.88854L48.9443 16L44 12.2229L39.0557 16L40.9443 9.88854L36 6.11146H42.1115L44 0Z" fill="#F87212"/>
  <path d="M62 0L63.8885 6.11146H70L65.0557 9.88854L66.9443 16L62 12.2229L57.0557 16L58.9443 9.88854L54 6.11146H60.1115L62 0Z" fill="#F87212"/>
  <path d="M80 0L81.8885 6.11146H88L83.0557 9.88854L84.9443 16L80 12.2229L75.0557 16L76.9443 9.88854L72 6.11146H78.1115L80 0Z" fill="#F87212"/>
</svg>
